<?xml version="1.0" encoding="utf-8"?>
<!-- Generator: Adobe Illustrator 16.0.0, SVG Export Plug-In . SVG Version: 6.00 Build 0)  -->
<!DOCTYPE svg PUBLIC "-//W3C//DTD SVG 1.1//EN" "http://www.w3.org/Graphics/SVG/1.1/DTD/svg11.dtd">
<svg version="1.1" id="Layer_1" xmlns="http://www.w3.org/2000/svg" xmlns:xlink="http://www.w3.org/1999/xlink" x="0px" y="0px"
	 width="600px" height="600px" viewBox="0 0 600 600" enable-background="new 0 0 600 600" xml:space="preserve">
<path fill="#FFFFFF" stroke="#000000" stroke-miterlimit="10" d="M236.847,412.797"/>
<path fill="#FFFFFF" stroke="#000000" stroke-miterlimit="10" d="M282.439,384.198"/>
<path fill="#FFFFFF" stroke="#000000" stroke-miterlimit="10" d="M282.439,384.198"/>
<path fill="#FFFFFF" stroke="#000000" stroke-miterlimit="10" d="M95.607,269.107"/>
<path fill="#FFFFFF" stroke="#000000" stroke-miterlimit="10" d="M288,70.5"/>
<path fill="#FFFFFF" stroke="#000000" stroke-miterlimit="10" d="M253.176,515.77"/>
<path fill="#FFFFFF" stroke="#000000" stroke-miterlimit="10" d="M272.642,84.608"/>
<path fill="#FFFFFF" stroke="#000000" stroke-miterlimit="10" d="M164.892,409.357"/>
<path fill="#FFFFFF" stroke="#000000" stroke-miterlimit="10" d="M272.642,517.107"/>
<path fill="#FFD200" d="M280,276.607c36,0,85.264,48.688,85.264,108.196c0,59.51-29.724,108.196-66.514,108.196H221V60h19.48h58.27
	c36.789,0,66.514,48.045,66.514,107.554S316,275.107,280,275.107V276.607z"/>
<path d="M471,273.607c-36,0-84.757,48.688-84.757,108.196c0,59.51,30.23,108.196,67.021,108.196H530V57h-18.467h-58.27
	c-36.789,0-67.021,48.045-67.021,107.554S435,272.107,471,272.107V273.607z"/>
<path fill="#FFFFFF" stroke="#000000" stroke-miterlimit="10" d="M99.994,196.977"/>
<path fill="#FFFFFF" stroke="#000000" stroke-miterlimit="10" d="M59.5,89.412"/>
<polygon points="340,581 224,581 224,548 340,548 416,508 529,508 529,540 416,540 "/>
<polygon fill="#FFD200" points="416,548 529,548 529,581 416,581 340,540 224,540 224,508 340,508 "/>
<polyline fill="#FFD200" points="454.885,312.867 478.65,275.456 342.891,59 416.35,59 559.5,275.837 416.16,492 342.891,492 
	426.287,358.503 341,279.24 341,205.475 454.885,312.867 "/>
<polyline points="299.829,312.867 276.42,275.456 412.537,59 339.078,59 195.928,275.837 339.268,492 412.537,492 328.427,358.503 
	413,279.24 413,205.475 299.829,312.867 "/>
</svg>
